<?xml version="1.0" standalone="no"?>
<!DOCTYPE svg PUBLIC "-//W3C//DTD SVG 20010904//EN"
 "http://www.w3.org/TR/2001/REC-SVG-20010904/DTD/svg10.dtd">
<svg version="1.0" xmlns="http://www.w3.org/2000/svg"
 width="145.000000pt" height="118.000000pt" viewBox="0 0 145.000000 118.000000"
 preserveAspectRatio="xMidYMid meet">
<metadata>
Created by potrace 1.15, written by Peter Selinger 2001-2017
</metadata>
<g transform="translate(0.000000,118.000000) scale(0.100000,-0.100000)"
fill="#000000" stroke="none">
<path d="M595 1150 c-168 -35 -346 -164 -463 -337 -129 -190 -157 -379 -79
-530 22 -42 107 -117 165 -147 63 -32 182 -71 258 -85 423 -78 830 29 935 246
50 103 31 248 -57 428 -106 221 -289 378 -484 419 -74 15 -216 18 -275 6z
m318 -50 c95 -30 182 -87 261 -171 107 -114 170 -233 211 -394 49 -195 -39
-341 -253 -421 -190 -72 -446 -79 -670 -19 -232 62 -333 152 -363 323 -41 232
190 577 452 676 104 39 247 42 362 6z"/>
<path d="M600 865 c-217 -49 -400 -231 -400 -398 0 -74 17 -113 68 -159 70
-63 160 -99 307 -123 170 -28 377 -17 515 26 183 58 246 167 191 332 -51 153
-159 248 -346 306 -92 29 -246 36 -335 16z m-47 -241 c27 -5 36 -11 33 -20 -4
-10 3 -14 19 -14 18 0 23 -4 19 -15 -4 -10 0 -15 16 -15 11 0 19 -4 16 -9 -4
-5 0 -12 6 -14 7 -3 4 -6 -7 -7 -18 -1 -17 -3 5 -12 l25 -11 -30 -7 -30 -8 28
-1 c17 -1 27 -7 27 -16 0 -9 -10 -16 -27 -16 -24 -2 -25 -2 -5 -6 25 -5 30
-23 6 -23 -8 0 -12 -5 -9 -10 9 -15 -39 -30 -102 -31 -45 -1 -62 3 -96 27 -69
49 -100 129 -65 171 19 24 90 54 113 48 11 -3 37 -8 58 -11z m522 -4 c3 -4 13
-6 24 -3 28 7 61 -33 59 -74 -1 -20 -7 -37 -15 -40 -12 -5 -12 -7 -2 -14 9 -5
4 -13 -19 -26 -32 -18 -44 -37 -17 -27 8 4 15 3 15 0 0 -4 -20 -16 -45 -27
-25 -11 -45 -24 -45 -29 0 -14 -53 -21 -89 -10 -51 14 -81 47 -81 87 0 62 43
123 110 155 35 17 97 22 105 8z"/>
</g>
</svg>
